<svg width="300" height="55" viewBox="0 0 300 55" fill="none" xmlns="http://www.w3.org/2000/svg">
<g clip-path="url(#clip0_81_6524)">
<path d="M37.056 7.49056C41.1644 12.3014 43.2216 18.9274 43.2216 27.3621C43.2216 35.7968 41.1644 42.629 37.056 47.5761C32.9445 52.5265 26.3339 55.0001 17.2244 55.0001H0V0.272705H5.40271V0.342523L17.2244 0.272705C26.3339 0.272705 32.9445 2.67977 37.056 7.49056ZM32.7962 43.3704C36.1416 39.5404 37.8189 34.2043 37.8189 27.3621C37.8189 20.5199 36.1354 15.6061 32.7653 11.7993C29.3952 7.99259 24.218 6.08755 17.2244 6.08755H5.40271V49.2551L17.2244 49.1852C24.2581 49.1387 29.4477 47.2004 32.7962 43.3704Z" fill="black"/>
<path d="M88.0311 6.08755H56.8876V24.7622L83.9011 24.6924V30.5072H56.8876V49.2517L88.0311 49.1819V54.9968H51.4849V0.272705H56.8876V0.342523L88.0311 0.272705V6.08755Z" fill="black"/>
<path d="M132.841 6.08755H101.697V24.7622L128.711 24.6924V30.5072H101.697V54.9968H96.2944V0.272705H101.697V0.342523L132.841 0.272705V6.08755Z" fill="black"/>
<path d="M189.66 0.272705V30.1016C189.66 34.4337 190.074 37.9911 190.899 40.7738C191.723 43.5566 193.123 45.6544 195.094 47.0674C197.064 48.4804 199.786 49.1886 203.261 49.1886C208.092 49.2351 211.45 47.6958 213.334 44.5706C215.219 41.4487 216.164 36.6246 216.164 30.1016V0.272705H221.567V30.1016C221.567 35.6671 221.017 40.2485 219.914 43.8525C218.811 47.4564 216.927 50.2159 214.258 52.1309C211.589 54.0459 207.922 55.0034 203.261 55.0034C198.6 55.0034 194.562 54.0459 191.788 52.1309C189.011 50.2159 187.062 47.4564 185.941 43.8525C184.816 40.2519 184.257 35.6671 184.257 30.1016V0.272705H189.66Z" fill="black"/>
<path d="M235.232 49.1852H266.376V55.0001L235.232 54.9303V55.0001H229.83V0.272705H235.232V49.1852Z" fill="black"/>
<path d="M300 0.272705V6.08755H284.302V55.0001H278.899V6.08755H263.201V0.272705H300.003H300Z" fill="black"/>
<path d="M132.081 55V53.454C133.038 53.1947 134.054 52.4998 135.133 51.3695C136.208 50.2357 137.202 48.4072 138.11 45.8838L154.402 0H156.771L174.57 48.5136C175.287 50.4186 176.078 51.7052 176.939 52.3768C177.801 53.0451 178.614 53.4075 179.38 53.4574V55.0033C178.28 54.9501 176.927 54.9003 175.324 54.8504C173.721 54.7972 172.154 54.7739 170.622 54.7739C168.661 54.7739 166.807 54.8005 165.059 54.8504C163.314 54.9003 161.914 54.9535 160.861 55.0033V53.4574C161.417 53.4507 161.973 53.4441 162.532 53.4374C163.02 53.3742 163.734 53.2279 164.522 52.839C165.096 52.5564 166.153 52.0543 166.773 50.9838C167.836 49.1519 167.076 46.9776 166.95 46.6351L153.54 7.80965L154.346 7.7764C149.781 20.9753 145.215 34.1743 140.65 47.3765C140.545 47.6824 139.992 49.3979 140.832 51.1434C141.348 52.2173 142.138 52.7758 142.506 53.0052C142.92 53.1615 143.352 53.2246 143.566 53.2545C143.887 53.3011 144.112 53.3011 144.335 53.3177C144.347 53.3177 145.984 53.454 146.006 53.4574V55.0033C144.523 54.9501 143.062 54.9003 141.629 54.8504C140.192 54.7972 138.83 54.7739 137.539 54.7739C136.343 54.7739 135.315 54.8005 134.453 54.8504C133.591 54.9003 132.803 54.9535 132.084 55.0033L132.081 55Z" fill="black"/>
</g>
<defs>
<clipPath id="clip0_81_6524">
<rect width="300" height="55" fill="white"/>
</clipPath>
</defs>
</svg>
