<svg width="334" height="82" viewBox="0 0 334 82" fill="none" xmlns="http://www.w3.org/2000/svg">
<path d="M73.1645 8.96C74.8445 8.96 76.2979 9.29333 77.5245 9.96C78.7779 10.6 79.7512 11.5867 80.4445 12.92C81.1378 14.2267 81.4845 15.8533 81.4845 17.8V30H79.4845V17.96C79.4845 15.6133 78.9112 13.8267 77.7645 12.6C76.6179 11.3733 75.0179 10.76 72.9645 10.76C71.3912 10.76 70.0312 11.0933 68.8845 11.76C67.7378 12.4267 66.8578 13.36 66.2445 14.56C65.6312 15.76 65.3245 17.2 65.3245 18.88V30H63.3245V17.96C63.3245 15.6133 62.7512 13.8267 61.6045 12.6C60.4578 11.3733 58.8578 10.76 56.8045 10.76C55.2312 10.76 53.8712 11.0933 52.7245 11.76C51.5778 12.4267 50.6978 13.36 50.0845 14.56C49.4712 15.76 49.1645 17.2 49.1645 18.88V30H47.1645V9.12H49.0845V14.88L48.8045 14.24C49.4178 12.6133 50.4445 11.3333 51.8845 10.4C53.3245 9.44 55.0578 8.96 57.0845 8.96C59.1645 8.96 60.9112 9.49333 62.3245 10.56C63.7645 11.6 64.6712 13.16 65.0445 15.24L64.3645 14.96C64.9245 13.1733 65.9778 11.7333 67.5245 10.64C69.0712 9.52 70.9512 8.96 73.1645 8.96ZM102.903 30V25.24L102.823 24.52V16.68C102.823 14.7333 102.289 13.2533 101.223 12.24C100.183 11.2267 98.6493 10.72 96.6226 10.72C95.1826 10.72 93.836 10.9733 92.5826 11.48C91.356 11.96 90.3026 12.5867 89.4226 13.36L88.4226 11.92C89.4626 10.9867 90.716 10.2667 92.1826 9.76C93.6493 9.22667 95.1826 8.96 96.7826 8.96C99.3693 8.96 101.356 9.61333 102.743 10.92C104.129 12.2267 104.823 14.1733 104.823 16.76V30H102.903ZM95.3826 30.16C93.836 30.16 92.4893 29.92 91.3426 29.44C90.2226 28.9333 89.356 28.2267 88.7426 27.32C88.156 26.4133 87.8626 25.3733 87.8626 24.2C87.8626 23.1333 88.1026 22.1733 88.5826 21.32C89.0893 20.44 89.916 19.7333 91.0626 19.2C92.2093 18.64 93.7426 18.36 95.6626 18.36H103.343V19.92H95.7026C93.5426 19.92 92.0226 20.32 91.1426 21.12C90.2893 21.92 89.8626 22.92 89.8626 24.12C89.8626 25.4533 90.3693 26.52 91.3826 27.32C92.396 28.12 93.8226 28.52 95.6626 28.52C97.4226 28.52 98.9026 28.12 100.103 27.32C101.329 26.52 102.236 25.36 102.823 23.84L103.383 25.2C102.823 26.72 101.863 27.9333 100.503 28.84C99.1693 29.72 97.4626 30.16 95.3826 30.16ZM121.103 30.16C119.156 30.16 117.396 29.72 115.823 28.84C114.276 27.9333 113.05 26.68 112.143 25.08C111.236 23.48 110.783 21.64 110.783 19.56C110.783 17.4533 111.236 15.6133 112.143 14.04C113.05 12.44 114.276 11.2 115.823 10.32C117.396 9.41333 119.156 8.96 121.103 8.96C122.943 8.96 124.596 9.38667 126.063 10.24C127.556 11.0933 128.73 12.3067 129.583 13.88C130.463 15.4533 130.903 17.3467 130.903 19.56C130.903 21.72 130.476 23.6 129.623 25.2C128.77 26.8 127.596 28.0267 126.103 28.88C124.636 29.7333 122.97 30.16 121.103 30.16ZM121.223 28.36C122.823 28.36 124.25 28 125.503 27.28C126.783 26.5333 127.783 25.4933 128.503 24.16C129.25 22.8267 129.623 21.2933 129.623 19.56C129.623 17.8 129.25 16.2667 128.503 14.96C127.783 13.6267 126.783 12.6 125.503 11.88C124.25 11.1333 122.823 10.76 121.223 10.76C119.623 10.76 118.183 11.1333 116.903 11.88C115.65 12.6 114.65 13.6267 113.903 14.96C113.183 16.2667 112.823 17.8 112.823 19.56C112.823 21.2933 113.183 22.8267 113.903 24.16C114.65 25.4933 115.65 26.5333 116.903 27.28C118.183 28 119.623 28.36 121.223 28.36ZM129.663 30V23.16L130.023 19.52L129.623 15.88V0.319998H131.623V30H129.663ZM148.535 30.16C146.428 30.16 144.562 29.7067 142.935 28.8C141.335 27.8933 140.068 26.64 139.135 25.04C138.228 23.44 137.775 21.6133 137.775 19.56C137.775 17.48 138.202 15.6533 139.055 14.08C139.935 12.48 141.135 11.2267 142.655 10.32C144.175 9.41333 145.882 8.96 147.775 8.96C149.668 8.96 151.362 9.4 152.855 10.28C154.375 11.16 155.562 12.4 156.415 14C157.295 15.5733 157.735 17.4 157.735 19.48C157.735 19.56 157.722 19.6533 157.695 19.76C157.695 19.84 157.695 19.9333 157.695 20.04H139.255V18.48H156.615L155.815 19.24C155.842 17.6133 155.495 16.16 154.775 14.88C154.082 13.5733 153.135 12.56 151.935 11.84C150.735 11.0933 149.348 10.72 147.775 10.72C146.228 10.72 144.842 11.0933 143.615 11.84C142.415 12.56 141.468 13.5733 140.775 14.88C140.082 16.16 139.735 17.6267 139.735 19.28V19.64C139.735 21.3467 140.108 22.8667 140.855 24.2C141.628 25.5067 142.682 26.5333 144.015 27.28C145.348 28 146.868 28.36 148.575 28.36C149.908 28.36 151.148 28.12 152.295 27.64C153.468 27.16 154.455 26.4267 155.255 25.44L156.415 26.76C155.508 27.88 154.362 28.7333 152.975 29.32C151.615 29.88 150.135 30.16 148.535 30.16ZM184.676 30.16C182.836 30.16 181.169 29.7333 179.676 28.88C178.209 28.0267 177.036 26.8 176.156 25.2C175.302 23.6 174.876 21.72 174.876 19.56C174.876 17.3467 175.302 15.4533 176.156 13.88C177.036 12.3067 178.209 11.0933 179.676 10.24C181.169 9.38667 182.836 8.96 184.676 8.96C186.649 8.96 188.409 9.41333 189.956 10.32C191.529 11.2 192.756 12.44 193.636 14.04C194.542 15.6133 194.996 17.4533 194.996 19.56C194.996 21.64 194.542 23.48 193.636 25.08C192.756 26.68 191.529 27.9333 189.956 28.84C188.409 29.72 186.649 30.16 184.676 30.16ZM174.196 30V0.319998H176.196V15.88L175.796 19.52L176.116 23.16V30H174.196ZM184.556 28.36C186.156 28.36 187.596 28 188.876 27.28C190.156 26.5333 191.156 25.4933 191.876 24.16C192.622 22.8267 192.996 21.2933 192.996 19.56C192.996 17.8 192.622 16.2667 191.876 14.96C191.156 13.6267 190.156 12.6 188.876 11.88C187.596 11.1333 186.156 10.76 184.556 10.76C182.956 10.76 181.516 11.1333 180.236 11.88C178.982 12.6 177.982 13.6267 177.236 14.96C176.516 16.2667 176.156 17.8 176.156 19.56C176.156 21.2933 176.516 22.8267 177.236 24.16C177.982 25.4933 178.982 26.5333 180.236 27.28C181.516 28 182.956 28.36 184.556 28.36ZM200.122 37.92C199.162 37.92 198.255 37.76 197.402 37.44C196.575 37.12 195.869 36.6533 195.282 36.04L196.282 34.52C196.815 35.08 197.389 35.4933 198.002 35.76C198.642 36.0267 199.362 36.16 200.162 36.16C201.122 36.16 201.962 35.8933 202.682 35.36C203.429 34.8267 204.122 33.8533 204.762 32.44L206.202 29.24L206.482 28.88L215.322 9.12H217.362L206.642 32.84C206.082 34.12 205.469 35.12 204.802 35.84C204.162 36.5867 203.455 37.12 202.682 37.44C201.909 37.76 201.055 37.92 200.122 37.92ZM206.162 30.52L196.482 9.12H198.602L207.402 28.76L206.162 30.52ZM87.3003 79V51H90.5803L103.14 72.16H101.38L113.78 51H117.06L117.1 79H113.26L113.22 57.04H114.14L103.1 75.6H101.26L90.1403 57.04H91.1403V79H87.3003ZM122.783 79V76.28L134.183 65.28C135.197 64.32 135.943 63.48 136.423 62.76C136.93 62.0133 137.263 61.3333 137.423 60.72C137.61 60.08 137.703 59.4667 137.703 58.88C137.703 57.44 137.197 56.3067 136.183 55.48C135.17 54.6533 133.69 54.24 131.743 54.24C130.25 54.24 128.903 54.4933 127.703 55C126.503 55.48 125.463 56.24 124.583 57.28L121.863 54.92C122.93 53.56 124.357 52.52 126.143 51.8C127.957 51.0533 129.943 50.68 132.103 50.68C134.05 50.68 135.743 51 137.183 51.64C138.623 52.2533 139.73 53.1467 140.503 54.32C141.303 55.4933 141.703 56.88 141.703 58.48C141.703 59.3867 141.583 60.28 141.343 61.16C141.103 62.04 140.65 62.9733 139.983 63.96C139.317 64.9467 138.357 66.0533 137.103 67.28L126.943 77.08L125.983 75.52H142.903V79H122.783ZM148.472 79V51H160.272C163.259 51 165.886 51.5867 168.152 52.76C170.446 53.9333 172.219 55.5733 173.472 57.68C174.752 59.7867 175.392 62.2267 175.392 65C175.392 67.7733 174.752 70.2133 173.472 72.32C172.219 74.4267 170.446 76.0667 168.152 77.24C165.886 78.4133 163.259 79 160.272 79H148.472ZM152.472 75.52H160.032C162.352 75.52 164.352 75.08 166.032 74.2C167.739 73.32 169.059 72.0933 169.992 70.52C170.926 68.92 171.392 67.08 171.392 65C171.392 62.8933 170.926 61.0533 169.992 59.48C169.059 57.9067 167.739 56.68 166.032 55.8C164.352 54.92 162.352 54.48 160.032 54.48H152.472V75.52Z" fill="black"/>
<g clip-path="url(#clip0_274_247)">
<path d="M222 65.1627H334" stroke="black"/>
<path d="M246 73.5813H310" stroke="black"/>
<path d="M270 81.8349H286" stroke="black"/>
<path d="M257.663 17.2702C257.219 15.8277 258.734 14.5804 259.999 15.3471L284.353 30.1109C284.593 30.2561 284.792 30.4633 284.93 30.7119L298.047 54.2712C298.66 55.3716 297.89 56.744 296.66 56.744H260.98C259.676 56.744 258.919 55.2197 259.682 54.128L265.688 45.5325C265.984 45.1087 266.069 44.5653 265.915 44.0674L257.663 17.2702Z" fill="black"/>
</g>
<defs>
<clipPath id="clip0_274_247">
<rect width="112" height="69" fill="white" transform="translate(222 13)"/>
</clipPath>
</defs>
</svg>
