<svg width="683" height="832" viewBox="0 0 683 832" fill="none" xmlns="http://www.w3.org/2000/svg">
<g opacity="0.6">
<path d="M189.772 1.91393C185.436 2.04372 180.765 3.58871 175.468 7.61949C162.495 2.79354 149.913 1.11696 138.66 10.9417C121.293 8.76839 115.641 13.2537 111.362 18.4889C107.549 18.4128 82.8214 14.7079 71.4831 31.0195C42.9868 27.7684 33.9818 47.1833 44.1855 65.2889C38.3658 73.9775 32.3355 82.5613 45.9455 99.125C41.1309 108.35 44.1152 118.358 55.4565 130.469C52.4635 143.438 58.3468 152.588 68.8994 159.719C66.9257 177.466 85.7749 187.785 91.4039 191.461C93.5652 201.802 98.0696 211.559 119.6 216.956C123.151 232.366 136.09 235.027 148.62 238.261C107.206 261.476 71.692 292.021 71.9324 366.961L65.8663 377.397C18.3788 405.249 -24.344 494.763 42.4631 567.522C46.8269 590.296 54.1455 606.654 60.6614 624.758C70.4078 697.709 134.015 731.869 150.792 735.908C175.376 753.968 201.559 771.103 236.991 783.106C270.392 816.327 306.578 828.989 342.961 828.967C343.494 828.966 344.037 828.972 344.571 828.967C380.954 828.989 417.139 816.327 450.541 783.106C485.972 771.103 512.156 753.968 536.739 735.908C553.516 731.869 617.124 697.709 626.87 624.758C633.386 606.654 640.704 590.296 645.068 567.522C711.875 494.763 669.153 405.249 621.665 377.397L615.599 366.961C615.839 292.021 580.325 261.476 538.911 238.261C551.441 235.027 564.381 232.366 567.931 216.956C589.462 211.559 593.966 201.802 596.127 191.461C601.757 187.785 620.606 177.466 618.632 159.719C629.185 152.588 635.068 143.438 632.075 130.469C643.416 118.358 646.4 108.35 641.586 99.125C655.196 82.5613 649.166 73.9775 643.346 65.2889C653.549 47.1833 644.545 27.7684 616.048 31.0195C604.71 14.7079 579.983 18.4128 576.169 18.4889C571.89 13.2537 566.239 8.76839 548.872 10.9417C537.618 1.11696 525.036 2.79354 512.063 7.61949C496.655 -4.10641 486.454 5.29301 474.805 8.84727C456.144 2.96806 451.879 11.0208 442.715 14.3C422.374 10.1538 416.191 19.1806 406.43 28.7084L395.084 28.4917C364.397 45.9326 349.151 81.4456 343.747 99.7028C338.34 81.4428 323.129 45.9296 292.447 28.4917L281.101 28.7084C271.341 19.1806 265.157 10.1538 244.817 14.3C235.652 11.0208 231.388 2.96806 212.726 8.84727C205.082 6.51479 198.052 1.66615 189.772 1.91393Z" fill="black"/>
<path d="M128.682 78.6419C210.1 119.123 257.43 151.868 283.36 179.758C270.081 231.085 200.805 233.428 175.475 231.988C180.662 229.66 184.989 226.871 186.524 222.586C180.167 218.23 157.63 222.127 141.897 213.603C147.941 212.395 150.768 211.219 153.595 206.918C138.73 202.345 122.718 198.405 113.301 190.831C118.383 190.891 123.128 191.927 129.765 187.488C116.45 180.568 102.242 175.085 91.2037 164.507C98.0879 164.345 105.51 164.442 107.668 162C95.4814 154.719 85.1995 146.622 76.6891 137.766C86.323 138.887 90.3914 137.921 92.7202 136.303C83.5083 127.204 71.8497 119.521 66.2906 108.308C73.4436 110.686 79.988 111.596 84.7046 108.099C81.5744 101.289 68.1624 97.2722 60.4414 81.3578C67.9716 82.062 75.9582 82.9422 77.5556 81.3578C74.054 67.62 68.0566 59.8992 62.1745 51.9004C78.2909 51.6696 102.708 51.9609 101.602 50.6469L91.637 40.8278C107.379 36.7403 123.487 41.4843 135.181 45.0061C140.431 41.0106 135.088 35.9582 128.682 30.7997C142.06 32.5222 154.149 35.4883 165.077 39.5743C170.915 34.4906 161.285 29.4069 156.628 24.3233C177.297 28.1049 186.053 33.4183 194.756 38.7386C201.07 32.9021 195.117 27.9419 190.856 22.8608C206.44 28.4272 214.467 35.613 222.918 42.708C225.784 38.979 230.198 36.2457 224.868 27.2481C235.933 33.3988 244.267 40.6469 250.431 48.7667C257.277 44.5628 254.51 38.8138 254.547 33.5157C266.046 42.5365 273.344 52.1362 282.277 61.5107C284.076 60.2471 285.652 55.962 287.043 49.1845C314.477 74.8515 353.241 139.501 297.008 165.134C249.175 127.062 192.022 99.3972 128.682 78.6419Z" fill="#75A928"/>
<path d="M560.689 78.6419C479.271 119.123 431.941 151.868 406.011 179.758C419.29 231.085 488.566 233.428 513.896 231.988C508.709 229.66 504.382 226.871 502.847 222.586C509.203 218.23 531.74 222.127 547.474 213.603C541.43 212.395 538.603 211.219 535.776 206.918C550.641 202.345 566.653 198.405 576.07 190.831C570.988 190.891 566.243 191.927 559.606 187.488C572.92 180.568 587.128 175.085 598.167 164.507C591.283 164.345 583.861 164.442 581.703 162C593.889 154.719 604.171 146.622 612.682 137.766C603.048 138.887 598.979 137.921 596.651 136.303C605.862 127.204 617.521 119.521 623.08 108.308C615.927 110.686 609.383 111.596 604.666 108.099C607.796 101.289 621.208 97.2722 628.929 81.3578C621.399 82.062 613.412 82.9422 611.815 81.3578C615.317 67.62 621.314 59.8992 627.196 51.9004C611.08 51.6696 586.662 51.9609 587.768 50.6469L597.734 40.8278C581.992 36.7403 565.884 41.4843 554.19 45.0061C548.939 41.0106 554.283 35.9582 560.689 30.7997C547.311 32.5222 535.222 35.4883 524.294 39.5743C518.456 34.4906 528.085 29.4069 532.743 24.3233C512.074 28.1049 503.317 33.4183 494.615 38.7386C488.301 32.9021 494.253 27.9419 498.514 22.8608C482.93 28.4272 474.903 35.613 466.452 42.708C463.587 38.979 459.173 36.2457 464.503 27.2481C453.438 33.3988 445.104 40.6469 438.939 48.7667C432.093 44.5628 434.861 38.8138 434.823 33.5157C423.324 42.5365 416.027 52.1362 407.094 61.5107C405.295 60.2471 403.719 55.962 402.328 49.1845C374.894 74.8515 336.13 139.501 392.363 165.134C440.195 127.062 497.348 99.3972 560.689 78.6419Z" fill="#75A928"/>
<path d="M443.286 601.306C443.286 624.307 433.012 646.367 414.722 662.631C396.432 678.895 371.626 688.033 345.761 688.033C319.896 688.033 295.09 678.895 276.8 662.631C258.511 646.367 248.236 624.307 248.236 601.306C248.236 578.305 258.511 556.246 276.8 539.981C295.09 523.717 319.896 514.58 345.761 514.58C371.626 514.58 396.432 523.717 414.722 539.981C433.012 556.246 443.286 578.305 443.286 601.306Z" fill="#BC1142"/>
<path d="M289.321 353.556C308.727 365.817 321.343 386.324 324.394 410.565C327.445 434.807 320.682 460.797 305.592 482.819C290.502 504.841 268.321 521.091 243.929 527.993C219.537 534.895 194.932 531.885 175.526 519.624C156.121 507.363 143.505 486.857 140.454 462.615C137.402 438.373 144.166 412.383 159.256 390.361C174.346 368.339 196.527 352.09 220.919 345.188C245.311 338.285 269.916 341.296 289.321 353.556Z" fill="#BC1142"/>
<path d="M398.4 348.934C378.995 361.195 366.379 381.702 363.327 405.943C360.276 430.185 367.039 456.175 382.129 478.197C397.22 500.219 419.4 516.469 443.792 523.371C468.184 530.273 492.789 527.263 512.195 515.002C531.6 502.741 544.216 482.234 547.267 457.993C550.319 433.751 543.556 407.761 528.465 385.739C513.375 363.717 491.194 347.468 466.802 340.565C442.41 333.663 417.805 336.674 398.4 348.934Z" fill="#BC1142"/>
<path d="M87.3642 395.301C130.997 384.027 102.093 569.37 66.5946 554.162C27.5476 523.872 14.9705 435.168 87.3642 395.301Z" fill="#BC1142"/>
<path d="M591.548 392.99C547.914 381.716 576.819 567.059 612.317 551.851C651.364 521.561 663.941 432.857 591.548 392.99Z" fill="#BC1142"/>
<path d="M443.317 254.977C518.609 242.717 581.254 285.856 578.732 364.591C576.256 394.775 415.581 259.471 443.317 254.977Z" fill="#BC1142"/>
<path d="M235.287 252.666C159.996 240.406 97.3501 283.545 99.8719 362.28C102.349 392.464 263.024 257.16 235.287 252.666Z" fill="#BC1142"/>
<path d="M343.44 234.295C298.503 233.168 255.374 266.459 255.271 285.769C255.146 309.232 290.801 333.254 343.746 333.864C397.815 334.237 432.316 314.635 432.49 290.422C432.687 262.989 383.315 233.872 343.44 234.295Z" fill="#BC1142"/>
<path d="M346.184 715.424C385.364 713.775 437.935 727.594 438.038 745.926C438.688 763.727 390.36 803.947 343.585 803.169C295.143 805.185 247.642 764.902 248.265 750.94C247.54 730.468 307.25 714.484 346.184 715.424Z" fill="#BC1142"/>
<path d="M201.472 606.786C229.366 639.195 242.081 696.133 218.802 712.917C196.78 725.729 143.298 720.453 105.285 667.79C79.6486 623.6 82.9527 578.632 100.952 565.421C127.87 549.608 169.46 570.966 201.472 606.786Z" fill="#BC1142"/>
<path d="M485.315 596.511C455.135 630.602 438.329 692.78 460.346 712.81C481.397 728.368 537.907 726.193 579.65 670.336C609.961 632.822 599.805 570.17 582.491 553.539C556.772 534.354 519.85 558.906 485.315 596.511Z" fill="#BC1142"/>
</g>
</svg>
