<svg width="1659" height="303" viewBox="0 0 1659 303" fill="none" xmlns="http://www.w3.org/2000/svg">
<path d="M0.830002 238H-8.17V247H0.830002V238ZM0.830002 14V4.99998H-8.17V14H0.830002ZM143.87 23.6L140.146 31.7933L140.169 31.8038L140.192 31.8142L143.87 23.6ZM176.83 51.12L184.401 46.2532L184.401 46.2532L176.83 51.12ZM176.83 136.24L184.36 141.169L184.381 141.138L184.401 141.107L176.83 136.24ZM143.87 163.44L147.49 171.68L147.519 171.667L147.548 171.654L143.87 163.44ZM23.87 172.72L17.4519 166.411L2.40203 181.72H23.87V172.72ZM42.43 153.84H51.43V131.847L36.0119 147.531L42.43 153.84ZM42.43 238V247H51.43V238H42.43ZM147.39 238L140.006 243.146L142.692 247H147.39V238ZM90.75 156.72V147.72H73.5087L83.366 161.866L90.75 156.72ZM135.23 156.72L142.6 151.555L139.913 147.72H135.23V156.72ZM192.19 238V247H209.487L199.56 232.835L192.19 238ZM42.43 158.32L35.8576 164.468L51.43 181.115V158.32H42.43ZM23.87 138.48V129.48H3.12646L17.2976 144.628L23.87 138.48ZM132.35 126.64L126.558 119.752L126.519 119.785L126.48 119.818L132.35 126.64ZM132.35 60.72L126.573 67.6208L126.612 67.6534L126.651 67.6856L132.35 60.72ZM23.87 49.2L17.2011 43.1563L3.56779 58.2H23.87V49.2ZM42.43 28.72H51.43V5.38651L35.7611 22.6763L42.43 28.72ZM9.83 238V14H-8.17V238H9.83ZM0.830002 23H92.99V4.99998H0.830002V23ZM92.99 23C111.895 23 127.517 26.0528 140.146 31.7933L147.594 15.4067C132.063 8.34721 113.765 4.99998 92.99 4.99998V23ZM140.192 31.8142C153.06 37.5761 162.62 45.6595 169.259 55.9868L184.401 46.2532C175.68 32.6871 163.266 22.4238 147.548 15.3858L140.192 31.8142ZM169.259 55.9868C175.867 66.2656 179.35 78.7027 179.35 93.68H197.35C197.35 75.804 193.153 59.8677 184.401 46.2532L169.259 55.9868ZM179.35 93.68C179.35 108.657 175.867 121.094 169.259 131.373L184.401 141.107C193.153 127.492 197.35 111.556 197.35 93.68H179.35ZM169.3 131.311C162.671 141.439 153.103 149.445 140.192 155.226L147.548 171.654C163.224 164.635 175.629 154.508 184.36 141.169L169.3 131.311ZM140.25 155.2C127.59 160.763 111.93 163.72 92.99 163.72V181.72C113.73 181.72 131.99 178.491 147.49 171.68L140.25 155.2ZM92.99 163.72H23.87V181.72H92.99V163.72ZM30.2881 179.029L48.8481 160.149L36.0119 147.531L17.4519 166.411L30.2881 179.029ZM33.43 153.84V238H51.43V153.84H33.43ZM42.43 229H0.830002V247H42.43V229ZM154.774 232.854L98.134 151.574L83.366 161.866L140.006 243.146L154.774 232.854ZM90.75 165.72H135.23V147.72H90.75V165.72ZM127.86 161.885L184.82 243.165L199.56 232.835L142.6 151.555L127.86 161.885ZM192.19 229H147.39V247H192.19V229ZM49.0024 152.172L30.4424 132.332L17.2976 144.628L35.8576 164.468L49.0024 152.172ZM23.87 147.48H91.07V129.48H23.87V147.48ZM91.07 147.48C110.5 147.48 126.753 143.329 138.22 133.462L126.48 119.818C119.6 125.738 108.333 129.48 91.07 129.48V147.48ZM138.142 133.528C149.876 123.661 155.43 109.978 155.43 93.68H137.43C137.43 105.542 133.597 113.832 126.558 119.752L138.142 133.528ZM155.43 93.68C155.43 77.2236 149.908 63.4567 138.049 53.7544L126.651 67.6856C133.566 73.3433 137.43 81.5497 137.43 93.68H155.43ZM138.127 53.8192C126.666 44.2235 110.453 40.2 91.07 40.2V58.2C108.381 58.2 119.687 61.8564 126.573 67.6208L138.127 53.8192ZM91.07 40.2H23.87V58.2H91.07V40.2ZM30.5389 55.2437L49.0989 34.7637L35.7611 22.6763L17.2011 43.1563L30.5389 55.2437ZM33.43 28.72V158.32H51.43V28.72H33.43ZM334.77 238H325.77V247H334.77V238ZM334.77 203.44H343.77V202.101L343.38 200.82L334.77 203.44ZM332.53 196.08H323.53V197.419L323.92 198.7L332.53 196.08ZM321.97 108.4L315.808 114.96L315.862 115.01L315.916 115.059L321.97 108.4ZM261.49 102.96L258.761 94.3837L258.732 94.3928L258.704 94.4021L261.49 102.96ZM238.13 115.44L230.206 119.707L235.429 129.407L243.892 122.354L238.13 115.44ZM222.45 86.32L216.971 79.1802L210.895 83.8432L214.526 90.5869L222.45 86.32ZM255.09 70.64L257.446 79.3263L257.495 79.313L257.543 79.2991L255.09 70.64ZM352.05 83.12L346.071 89.8467L346.127 89.8967L346.184 89.9458L352.05 83.12ZM372.53 238V247H381.53V238H372.53ZM247.41 233.84L243.604 241.996L243.679 242.031L243.755 242.064L247.41 233.84ZM225.01 215.6L217.459 220.498L217.537 220.617L217.618 220.734L225.01 215.6ZM224.05 163.12L216.37 158.427L216.322 158.506L216.276 158.585L224.05 163.12ZM246.77 144.88L250.315 153.152L246.77 144.88ZM337.97 138.16H346.97V129.16H337.97V138.16ZM337.97 164.72V173.72H346.97V164.72H337.97ZM263.73 171.44L269.784 178.099L269.865 178.026L269.944 177.95L263.73 171.44ZM265.33 204.72L259.973 211.952L265.33 204.72ZM315.57 204.4L311.128 196.573L311.081 196.599L311.035 196.626L315.57 204.4ZM332.53 184.56L341.197 182.133L333.936 156.201L324.146 181.288L332.53 184.56ZM339.25 208.56L347.655 211.779L348.719 208.999L347.917 206.133L339.25 208.56ZM318.45 231.92L314.093 224.045L314.057 224.065L314.021 224.085L318.45 231.92ZM343.77 238V203.44H325.77V238H343.77ZM343.38 200.82L341.14 193.46L323.92 198.7L326.16 206.06L343.38 200.82ZM341.53 196.08V135.6H323.53V196.08H341.53ZM341.53 135.6C341.53 121.968 337.365 110.232 328.024 101.741L315.916 115.059C320.655 119.368 323.53 125.765 323.53 135.6H341.53ZM328.132 101.84C318.774 93.0494 305.472 89.48 289.97 89.48V107.48C303.055 107.48 311.086 110.524 315.808 114.96L328.132 101.84ZM289.97 89.48C279.42 89.48 269.007 91.1236 258.761 94.3837L264.219 111.536C272.746 108.823 281.32 107.48 289.97 107.48V89.48ZM258.704 94.4021C248.613 97.6876 239.774 102.355 232.368 108.526L243.892 122.354C249.286 117.859 256.021 114.206 264.276 111.518L258.704 94.4021ZM246.054 111.173L230.374 82.0531L214.526 90.5869L230.206 119.707L246.054 111.173ZM227.929 93.4598C236.061 87.2195 245.847 82.4717 257.446 79.3263L252.734 61.9537C239.16 65.635 227.186 71.3404 216.971 79.1802L227.929 93.4598ZM257.543 79.2991C269.524 75.9045 281.924 74.2 294.77 74.2V56.2C280.309 56.2 266.256 58.1221 252.637 61.9809L257.543 79.2991ZM294.77 74.2C318.145 74.2 334.809 79.8363 346.071 89.8467L358.029 76.3933C342.411 62.5103 320.889 56.2 294.77 56.2V74.2ZM346.184 89.9458C357.181 99.3965 363.53 114.687 363.53 137.84H381.53C381.53 111.499 374.225 90.3101 357.916 76.2942L346.184 89.9458ZM363.53 137.84V238H381.53V137.84H363.53ZM372.53 229H334.77V247H372.53V229ZM281.01 231.24C269.2 231.24 259.292 229.272 251.065 225.616L243.755 242.064C254.728 246.941 267.22 249.24 281.01 249.24V231.24ZM251.216 225.684C242.862 221.786 236.713 216.673 232.402 210.466L217.618 220.734C223.974 229.887 232.758 236.934 243.604 241.996L251.216 225.684ZM232.561 210.702C228.429 204.332 226.33 197.194 226.33 189.04H208.33C208.33 200.513 211.351 211.081 217.459 220.498L232.561 210.702ZM226.33 189.04C226.33 180.902 228.211 173.849 231.824 167.655L216.276 158.585C210.929 167.751 208.33 177.978 208.33 189.04H226.33ZM231.73 167.813C235.22 162.102 241.123 157.092 250.315 153.152L243.225 136.608C231.51 141.628 222.267 148.778 216.37 158.427L231.73 167.813ZM250.315 153.152C259.221 149.335 271.738 147.16 288.37 147.16V129.16C270.442 129.16 255.225 131.465 243.225 136.608L250.315 153.152ZM288.37 147.16H337.97V129.16H288.37V147.16ZM328.97 138.16V164.72H346.97V138.16H328.97ZM337.97 155.72H291.25V173.72H337.97V155.72ZM291.25 155.72C283.993 155.72 277.515 156.309 271.995 157.657C266.53 158.991 261.407 161.215 257.516 164.93L269.944 177.95C270.746 177.185 272.557 176.049 276.265 175.143C279.919 174.251 284.853 173.72 291.25 173.72V155.72ZM257.676 164.781C251.087 170.77 247.69 178.53 247.69 187.44H265.69C265.69 183.55 266.986 180.643 269.784 178.099L257.676 164.781ZM247.69 187.44C247.69 197.505 251.889 205.964 259.973 211.952L270.687 197.488C267.251 194.942 265.69 191.882 265.69 187.44H247.69ZM259.973 211.952C267.821 217.766 277.96 220.12 289.33 220.12V202.12C280.22 202.12 274.359 200.208 270.687 197.488L259.973 211.952ZM289.33 220.12C300.567 220.12 310.909 217.538 320.105 212.174L311.035 196.626C304.871 200.222 297.72 202.12 289.33 202.12V220.12ZM320.012 212.227C329.77 206.689 336.777 198.433 340.914 187.832L324.146 181.288C321.456 188.181 317.157 193.151 311.128 196.573L320.012 212.227ZM323.863 186.987L330.583 210.987L347.917 206.133L341.197 182.133L323.863 186.987ZM330.845 205.341C327.817 213.248 322.399 219.45 314.093 224.045L322.807 239.795C334.554 233.297 343.003 223.925 347.655 211.779L330.845 205.341ZM314.021 224.085C305.945 228.65 295.118 231.24 281.01 231.24V249.24C297.195 249.24 311.328 246.283 322.879 239.755L314.021 224.085ZM435.385 234.8L432.838 243.432L432.921 243.457L433.005 243.48L435.385 234.8ZM404.345 221.04L396.312 216.981L392.782 223.968L399.211 228.432L404.345 221.04ZM419.705 190.64L424.551 183.056L416.161 177.696L411.672 186.581L419.705 190.64ZM447.225 202.8L449.811 194.18L447.225 202.8ZM506.425 202.48L501.837 194.737L501.772 194.776L501.708 194.815L506.425 202.48ZM509.305 178.16L504.313 185.648L504.46 185.747L504.612 185.84L509.305 178.16ZM473.465 168.88L472.192 177.79L472.21 177.792L472.227 177.794L473.465 168.88ZM450.745 164.72L448.504 173.436L448.648 173.473L448.793 173.506L450.745 164.72ZM430.265 156.72L425.714 164.484L425.815 164.544L425.917 164.6L430.265 156.72ZM418.745 90.48L425.828 96.0319L425.864 95.9862L425.9 95.94L418.745 90.48ZM444.665 71.92L447.896 80.3201L447.938 80.3038L447.98 80.2871L444.665 71.92ZM519.545 69.04L517.627 77.8331L519.545 69.04ZM548.665 79.92L556.698 83.9787L560.442 76.5693L553.358 72.2405L548.665 79.92ZM533.305 110.32L528.645 118.02L536.956 123.05L541.338 114.379L533.305 110.32ZM508.665 100.4L506.591 109.158L506.723 109.189L506.857 109.216L508.665 100.4ZM457.145 102.96L452.474 95.2669L452.412 95.3049L452.35 95.3439L457.145 102.96ZM454.265 128.24L449.273 135.728L454.265 128.24ZM469.305 134.32L467.193 143.069L469.305 134.32ZM489.785 138.16L488.512 147.07L488.651 147.089L488.791 147.105L489.785 138.16ZM512.505 142.32L514.746 133.604L512.505 142.32ZM532.985 150.32L528.637 158.2L528.797 158.288L528.96 158.37L532.985 150.32ZM544.505 215.28L537.514 209.612L537.467 209.67L537.422 209.728L544.505 215.28ZM517.945 233.84L521.071 242.28L521.139 242.254L521.207 242.228L517.945 233.84ZM476.665 231.24C463.142 231.24 450.184 229.526 437.765 226.12L433.005 243.48C447.039 247.328 461.602 249.24 476.665 249.24V231.24ZM437.932 226.168C425.464 222.489 416.099 218.245 409.479 213.648L399.211 228.432C407.951 234.501 419.28 239.431 432.838 243.432L437.932 226.168ZM412.378 225.099L427.738 194.699L411.672 186.581L396.312 216.981L412.378 225.099ZM414.859 198.224C423.376 203.665 433.344 208.032 444.639 211.42L449.811 194.18C439.772 191.168 431.394 187.428 424.551 183.056L414.859 198.224ZM444.639 211.42C456.107 214.861 467.645 216.6 479.225 216.6V198.6C469.472 198.6 459.676 197.139 449.811 194.18L444.639 211.42ZM479.225 216.6C492.182 216.6 503.376 214.924 511.142 210.145L501.708 194.815C498.381 196.863 491.442 198.6 479.225 198.6V216.6ZM511.013 210.223C518.981 205.501 524.065 198.227 524.065 188.72H506.065C506.065 190.733 505.389 192.632 501.837 194.737L511.013 210.223ZM524.065 188.72C524.065 181.055 520.65 174.546 513.998 170.48L504.612 185.84C505.64 186.468 506.065 186.998 506.065 188.72H524.065ZM514.297 170.672C509.212 167.281 503.016 165.02 496.088 163.587L492.442 181.213C497.887 182.34 501.718 183.919 504.313 185.648L514.297 170.672ZM496.088 163.587C489.67 162.259 482.537 161.054 474.703 159.966L472.227 177.794C479.753 178.84 486.486 179.981 492.442 181.213L496.088 163.587ZM474.738 159.97C467.509 158.938 460.162 157.593 452.697 155.934L448.793 173.506C456.688 175.26 464.488 176.689 472.192 177.79L474.738 159.97ZM452.986 156.004C446.188 154.255 440.078 151.855 434.613 148.84L425.917 164.6C432.825 168.412 440.369 171.345 448.504 173.436L452.986 156.004ZM434.816 148.956C429.837 146.037 425.863 142.225 422.796 137.453L407.654 147.187C412.267 154.362 418.319 160.15 425.714 164.484L434.816 148.956ZM422.796 137.453C420.181 133.387 418.465 127.363 418.465 118.64H400.465C400.465 129.544 402.589 139.307 407.654 147.187L422.796 137.453ZM418.465 118.64C418.465 109.591 420.991 102.203 425.828 96.0319L411.661 84.9281C404.125 94.5432 400.465 105.929 400.465 118.64H418.465ZM425.9 95.94C430.918 89.3639 438.096 84.0893 447.896 80.3201L441.434 63.5199C429.047 68.284 418.945 75.3827 411.59 85.0199L425.9 95.94ZM447.98 80.2871C457.994 76.3193 470.153 74.2 484.665 74.2V56.2C468.457 56.2 453.949 58.5607 441.35 63.5528L447.98 80.2871ZM484.665 74.2C495.513 74.2 506.497 75.4048 517.627 77.8331L521.464 60.2469C509.127 57.5552 496.857 56.2 484.665 56.2V74.2ZM517.627 77.8331C528.687 80.2462 537.381 83.5715 543.972 87.5995L553.358 72.2405C544.589 66.8818 533.87 62.9537 521.464 60.2469L517.627 77.8331ZM540.632 75.8613L525.272 106.261L541.338 114.379L556.698 83.9787L540.632 75.8613ZM537.965 102.62C529.08 97.2425 519.91 93.5194 510.474 91.5836L506.857 109.216C514.06 110.694 521.317 113.584 528.645 118.02L537.965 102.62ZM510.739 91.6423C501.972 89.5658 493.169 88.52 484.345 88.52V106.52C491.734 106.52 499.145 107.394 506.591 109.158L510.739 91.6423ZM484.345 88.52C471.604 88.52 460.55 90.3638 452.474 95.2669L461.816 110.653C465.687 108.303 472.767 106.52 484.345 106.52V88.52ZM452.35 95.3439C444.658 100.187 439.505 107.35 439.505 116.72H457.505C457.505 114.997 458.112 112.987 461.94 110.576L452.35 95.3439ZM439.505 116.72C439.505 124.462 442.623 131.295 449.273 135.728L459.257 120.752C458.227 120.065 457.505 119.218 457.505 116.72H439.505ZM449.273 135.728C454.255 139.05 460.341 141.415 467.193 143.069L471.417 125.571C465.895 124.239 461.955 122.55 459.257 120.752L449.273 135.728ZM467.193 143.069C473.702 144.64 480.813 145.97 488.512 147.07L491.058 129.25C483.823 128.217 477.281 126.987 471.417 125.571L467.193 143.069ZM488.791 147.105C496.051 147.912 503.208 149.222 510.264 151.036L514.746 133.604C506.869 131.578 498.879 130.115 490.779 129.215L488.791 147.105ZM510.264 151.036C517.062 152.785 523.172 155.185 528.637 158.2L537.333 142.44C530.425 138.628 522.881 135.695 514.746 133.604L510.264 151.036ZM528.96 158.37C533.925 160.852 537.816 164.345 540.774 168.947L555.916 159.213C551.194 151.869 544.845 146.188 537.01 142.27L528.96 158.37ZM540.774 168.947C543.406 173.041 545.105 178.976 545.105 187.44H563.105C563.105 176.704 560.964 167.066 555.916 159.213L540.774 168.947ZM545.105 187.44C545.105 196.153 542.546 203.406 537.514 209.612L551.496 220.948C559.264 211.368 563.105 200.06 563.105 187.44H545.105ZM537.422 209.728C532.439 216.085 525.046 221.422 514.683 225.452L521.207 242.228C533.884 237.298 544.198 230.261 551.589 220.832L537.422 209.728ZM514.819 225.4C504.551 229.203 491.904 231.24 476.665 231.24V249.24C493.426 249.24 508.299 247.01 521.071 242.28L514.819 225.4ZM645.193 230.64L640.759 238.472L640.79 238.49L640.822 238.507L645.193 230.64ZM617.992 201.84L609.969 205.917L610.009 205.997L610.051 206.075L617.992 201.84ZM617.672 103.28L609.677 99.1488L609.649 99.2018L609.623 99.2551L617.672 103.28ZM644.552 74.8L648.873 82.6953L648.929 82.6642L648.986 82.6323L644.552 74.8ZM727.753 76.08L723.315 83.9102L723.343 83.9258L723.371 83.9413L727.753 76.08ZM758.473 106.48L750.666 110.959L750.694 111.007L750.722 111.054L758.473 106.48ZM758.473 198.96L750.689 194.441L750.678 194.461L750.666 194.481L758.473 198.96ZM727.753 229.36L723.371 221.499L723.343 221.514L723.315 221.53L727.753 229.36ZM588.552 300.08H579.552V309.08H588.552V300.08ZM588.552 67.12V58.12H579.552V67.12H588.552ZM626.633 67.12H635.633V58.12H626.633V67.12ZM626.633 107.44L635.629 107.693L635.633 107.567V107.44H626.633ZM625.352 152.88L616.356 152.627L616.344 153.07L616.375 153.512L625.352 152.88ZM628.552 198.32H637.552V198.003L637.53 197.688L628.552 198.32ZM628.552 300.08V309.08H637.552V300.08H628.552ZM704.393 199.6L700.022 191.733L699.974 191.759L699.927 191.786L704.393 199.6ZM722.633 181.04L730.51 185.393V185.393L722.633 181.04ZM722.633 124.08L714.755 128.433L714.78 128.478L714.805 128.522L722.633 124.08ZM704.393 105.52L699.927 113.334L699.974 113.361L700.022 113.387L704.393 105.52ZM652.872 105.52L648.502 97.6526L652.872 105.52ZM634.633 124.08L642.46 128.522L642.485 128.478L642.51 128.433L634.633 124.08ZM652.872 199.6L657.243 191.733L652.872 199.6ZM683.273 231.24C670.853 231.24 659.676 228.391 649.563 222.773L640.822 238.507C653.749 245.689 667.959 249.24 683.273 249.24V231.24ZM649.626 222.808C639.976 217.345 632.053 209.078 625.934 197.605L610.051 206.075C617.585 220.202 627.796 231.135 640.759 238.472L649.626 222.808ZM626.016 197.763C620.233 186.383 617.073 171.467 617.073 152.56H599.073C599.073 173.333 602.526 191.27 609.969 205.917L626.016 197.763ZM617.073 152.56C617.073 133.377 620.146 118.457 625.722 107.305L609.623 99.2551C602.399 113.703 599.073 131.636 599.073 152.56H617.073ZM625.668 107.411C631.559 96.0092 639.321 87.9218 648.873 82.6953L640.232 66.9046C627.171 74.0515 617.012 84.9508 609.677 99.1488L625.668 107.411ZM648.986 82.6323C658.788 77.0839 670.135 74.2 683.273 74.2V56.2C667.397 56.2 652.93 59.7161 640.119 66.9677L648.986 82.6323ZM683.273 74.2C698.8 74.2 712.055 77.5293 723.315 83.9102L732.19 68.2498C717.85 60.124 701.452 56.2 683.273 56.2V74.2ZM723.371 83.9413C734.946 90.3931 744.007 99.3526 750.666 110.959L766.279 102.001C758.005 87.5807 746.586 76.2735 732.134 68.2187L723.371 83.9413ZM750.722 111.054C757.453 122.46 760.992 136.183 760.992 152.56H778.992C778.992 133.524 774.852 116.527 766.223 101.906L750.722 111.054ZM760.992 152.56C760.992 168.933 757.454 182.791 750.689 194.441L766.256 203.479C774.851 188.676 778.992 171.601 778.992 152.56H760.992ZM750.666 194.481C744.007 206.087 734.946 215.047 723.371 221.499L732.134 237.221C746.586 229.166 758.005 217.859 766.279 203.439L750.666 194.481ZM723.315 221.53C712.055 227.911 698.8 231.24 683.273 231.24V249.24C701.452 249.24 717.85 245.316 732.19 237.19L723.315 221.53ZM597.552 300.08V67.12H579.552V300.08H597.552ZM588.552 76.12H626.633V58.12H588.552V76.12ZM617.633 67.12V107.44H635.633V67.12H617.633ZM617.636 107.187L616.356 152.627L634.349 153.133L635.629 107.693L617.636 107.187ZM616.375 153.512L619.575 198.952L637.53 197.688L634.33 152.248L616.375 153.512ZM619.552 198.32V300.08H637.552V198.32H619.552ZM628.552 291.08H588.552V309.08H628.552V291.08ZM678.792 215C689.773 215 699.878 212.545 708.858 207.414L699.927 191.786C693.973 195.188 687.012 197 678.792 197V215ZM708.763 207.467C718 202.336 725.26 194.893 730.51 185.393L714.755 176.687C711.045 183.4 706.145 188.331 700.022 191.733L708.763 207.467ZM730.51 185.393C735.845 175.738 738.352 164.696 738.352 152.56H720.352C720.352 162.184 718.38 170.129 714.755 176.687L730.51 185.393ZM738.352 152.56C738.352 140.253 735.862 129.156 730.46 119.638L714.805 128.522C718.363 134.791 720.352 142.68 720.352 152.56H738.352ZM730.51 119.727C725.26 110.227 718 102.784 708.763 97.6526L700.022 113.387C706.145 116.789 711.045 121.72 714.755 128.433L730.51 119.727ZM708.858 97.7058C699.878 92.5746 689.773 90.12 678.792 90.12V108.12C687.012 108.12 693.973 109.932 699.927 113.334L708.858 97.7058ZM678.792 90.12C667.808 90.12 657.64 92.5756 648.502 97.6526L657.243 113.387C663.465 109.931 670.577 108.12 678.792 108.12V90.12ZM648.502 97.6526C639.265 102.784 632.005 110.227 626.755 119.727L642.51 128.433C646.22 121.72 651.12 116.789 657.243 113.387L648.502 97.6526ZM626.805 119.638C621.403 129.156 618.912 140.253 618.912 152.56H636.912C636.912 142.68 638.902 134.791 642.46 128.522L626.805 119.638ZM618.912 152.56C618.912 164.696 621.42 175.738 626.755 185.393L642.51 176.687C638.885 170.129 636.912 162.184 636.912 152.56H618.912ZM626.755 185.393C632.005 194.893 639.265 202.336 648.502 207.467L657.243 191.733C651.12 188.331 646.22 183.4 642.51 176.687L626.755 185.393ZM648.502 207.467C657.64 212.544 667.808 215 678.792 215V197C670.577 197 663.465 195.189 657.243 191.733L648.502 207.467ZM863.927 230.64L859.494 238.472L863.927 230.64ZM837.047 201.84L828.971 205.812L829.011 205.892L829.052 205.971L837.047 201.84ZM837.367 103.28L829.426 99.0447L829.399 99.0966L829.372 99.1488L837.367 103.28ZM864.568 74.8L868.888 82.6953L868.913 82.6815L868.938 82.6674L864.568 74.8ZM947.128 76.08L942.69 83.9102L942.718 83.9258L942.746 83.9413L947.128 76.08ZM977.848 106.48L970.041 110.959L970.069 111.007L970.097 111.054L977.848 106.48ZM977.848 198.64L970.097 194.066L970.069 194.113L970.041 194.161L977.848 198.64ZM947.128 229.36L951.565 237.19L951.586 237.178L951.607 237.166L947.128 229.36ZM807.927 238H798.927V247H807.927V238ZM807.927 0.559982V-8.44001H798.927V0.559982H807.927ZM847.927 0.559982H856.927V-8.44001H847.927V0.559982ZM847.927 106.8L856.905 107.432L856.927 107.117V106.8H847.927ZM844.727 152.24L835.75 151.608L835.719 152.05L835.731 152.493L844.727 152.24ZM846.008 197.68H855.008V197.553L855.004 197.427L846.008 197.68ZM846.008 238V247H855.008V238H846.008ZM923.768 199.6L919.397 191.733L919.349 191.759L919.302 191.786L923.768 199.6ZM942.008 181.04L949.885 185.393V185.393L942.008 181.04ZM942.008 124.08L934.13 128.433L934.155 128.478L934.18 128.522L942.008 124.08ZM923.768 105.52L919.302 113.334L919.349 113.361L919.397 113.387L923.768 105.52ZM872.247 105.52L867.877 97.6526L872.247 105.52ZM854.008 124.08L861.835 128.522L861.86 128.478L861.885 128.433L854.008 124.08ZM872.247 199.6L876.618 191.733L872.247 199.6ZM902.648 231.24C889.51 231.24 878.163 228.356 868.361 222.808L859.494 238.472C872.305 245.724 886.772 249.24 902.648 249.24V231.24ZM868.361 222.808C858.739 217.362 850.945 209.131 845.043 197.709L829.052 205.971C836.377 220.149 846.502 231.118 859.494 238.472L868.361 222.808ZM845.124 197.868C839.513 186.459 836.448 171.503 836.448 152.56H818.448C818.448 173.297 821.782 191.194 828.971 205.812L845.124 197.868ZM836.448 152.56C836.448 133.413 839.617 118.533 845.363 107.411L829.372 99.1488C821.891 113.627 818.448 131.601 818.448 152.56H836.448ZM845.309 107.515C851.417 96.0613 859.307 87.9378 868.888 82.6953L860.247 66.9046C847.215 74.0355 836.971 84.8986 829.426 99.0447L845.309 107.515ZM868.938 82.6674C879.051 77.0494 890.228 74.2 902.648 74.2V56.2C887.334 56.2 873.124 59.7506 860.197 66.9326L868.938 82.6674ZM902.648 74.2C918.175 74.2 931.43 77.5293 942.69 83.9102L951.565 68.2498C937.225 60.124 920.827 56.2 902.648 56.2V74.2ZM942.746 83.9413C954.321 90.3931 963.382 99.3526 970.041 110.959L985.654 102.001C977.38 87.5807 965.961 76.2735 951.509 68.2187L942.746 83.9413ZM970.097 111.054C976.828 122.46 980.367 136.183 980.367 152.56H998.368C998.368 133.524 994.227 116.527 985.598 101.906L970.097 111.054ZM980.367 152.56C980.367 168.937 976.828 182.66 970.097 194.066L985.598 203.214C994.227 188.593 998.368 171.596 998.368 152.56H980.367ZM970.041 194.161C963.369 205.79 954.277 214.881 942.648 221.554L951.607 237.166C966.004 228.905 977.393 217.517 985.654 203.119L970.041 194.161ZM942.69 221.53C931.43 227.911 918.175 231.24 902.648 231.24V249.24C920.827 249.24 937.225 245.316 951.565 237.19L942.69 221.53ZM816.927 238V0.559982H798.927V238H816.927ZM807.927 9.55998H847.927V-8.44001H807.927V9.55998ZM838.927 0.559982V106.8H856.927V0.559982H838.927ZM838.95 106.168L835.75 151.608L853.705 152.872L856.905 107.432L838.95 106.168ZM835.731 152.493L837.011 197.933L855.004 197.427L853.724 151.987L835.731 152.493ZM837.008 197.68V238H855.008V197.68H837.008ZM846.008 229H807.927V247H846.008V229ZM898.167 215C909.148 215 919.253 212.545 928.233 207.414L919.302 191.786C913.348 195.188 906.387 197 898.167 197V215ZM928.138 207.467C937.375 202.336 944.635 194.893 949.885 185.393L934.13 176.687C930.42 183.4 925.52 188.331 919.397 191.733L928.138 207.467ZM949.885 185.393C955.22 175.738 957.727 164.696 957.727 152.56H939.727C939.727 162.184 937.755 170.129 934.13 176.687L949.885 185.393ZM957.727 152.56C957.727 140.253 955.237 129.156 949.835 119.638L934.18 128.522C937.738 134.791 939.727 142.68 939.727 152.56H957.727ZM949.885 119.727C944.635 110.227 937.375 102.784 928.138 97.6526L919.397 113.387C925.52 116.789 930.42 121.72 934.13 128.433L949.885 119.727ZM928.233 97.7058C919.253 92.5746 909.148 90.12 898.167 90.12V108.12C906.387 108.12 913.348 109.932 919.302 113.334L928.233 97.7058ZM898.167 90.12C887.183 90.12 877.015 92.5756 867.877 97.6526L876.618 113.387C882.84 109.931 889.952 108.12 898.167 108.12V90.12ZM867.877 97.6526C858.64 102.784 851.38 110.227 846.13 119.727L861.885 128.433C865.595 121.72 870.495 116.789 876.618 113.387L867.877 97.6526ZM846.18 119.638C840.778 129.156 838.287 140.253 838.287 152.56H856.287C856.287 142.68 858.277 134.791 861.835 128.522L846.18 119.638ZM838.287 152.56C838.287 164.696 840.795 175.738 846.13 185.393L861.885 176.687C858.26 170.129 856.287 162.184 856.287 152.56H838.287ZM846.13 185.393C851.38 194.893 858.64 202.336 867.877 207.467L876.618 191.733C870.495 188.331 865.595 183.4 861.885 176.687L846.13 185.393ZM867.877 207.467C877.015 212.544 887.183 215 898.167 215V197C889.952 197 882.84 195.189 876.618 191.733L867.877 207.467ZM1057.7 229.04L1053.39 236.941L1053.46 236.98L1053.54 237.017L1057.7 229.04ZM1024.74 197.68L1016.96 202.199L1016.99 202.246L1017.01 202.292L1024.74 197.68ZM1024.42 107.44L1016.64 102.921L1016.63 102.941L1016.62 102.961L1024.42 107.44ZM1055.78 76.4L1051.41 68.5326L1051.38 68.5475L1051.36 68.5626L1055.78 76.4ZM1146.02 76.08L1150.4 68.2187L1146.02 76.08ZM1187.62 159.28L1178.67 158.384L1178.62 158.831V159.28H1187.62ZM1187.3 165.36V174.36H1195.36L1196.25 166.354L1187.3 165.36ZM1044.9 165.36H1035.9V174.36H1044.9V165.36ZM1044.9 138.8V129.8H1035.9V138.8H1044.9ZM1166.18 138.8L1170.4 146.75L1166.18 129.8V138.8ZM1150.5 147.12L1141.5 146.924L1141.17 162.26L1154.72 155.07L1150.5 147.12ZM1144.42 121.2L1136.61 125.665V125.665L1144.42 121.2ZM1126.82 103.6L1122.26 111.357L1122.31 111.386L1122.36 111.414L1126.82 103.6ZM1075.62 103.6L1071.16 95.7858L1071.11 95.8139L1071.06 95.8426L1075.62 103.6ZM1058.34 121.52L1050.48 117.149L1050.45 117.188L1050.43 117.226L1058.34 121.52ZM1079.14 199.92L1075.12 207.97L1079.14 199.92ZM1134.5 201.84L1137.76 210.228L1134.5 201.84ZM1154.98 187.76L1161.77 181.852L1155.22 174.319L1148.4 181.619L1154.98 187.76ZM1176.42 212.4L1183.26 218.257L1188.31 212.356L1183.21 206.492L1176.42 212.4ZM1147.3 233.2L1150.7 241.535L1150.74 241.519L1150.77 241.503L1147.3 233.2ZM1107.62 231.24C1089.83 231.24 1074.67 227.748 1061.87 221.063L1053.54 237.017C1069.32 245.265 1087.44 249.24 1107.62 249.24V231.24ZM1062.01 221.139C1049.28 214.197 1039.5 204.854 1032.47 193.068L1017.01 202.292C1025.77 216.96 1037.96 228.523 1053.39 236.941L1062.01 221.139ZM1032.53 193.161C1025.72 181.444 1022.22 167.992 1022.22 152.56H1004.22C1004.22 170.835 1008.4 187.463 1016.96 202.199L1032.53 193.161ZM1022.22 152.56C1022.22 136.845 1025.65 123.39 1032.23 111.919L1016.62 102.961C1008.26 117.516 1004.22 134.141 1004.22 152.56H1022.22ZM1032.21 111.959C1039.09 100.108 1048.39 90.9109 1060.21 84.2374L1051.36 68.5626C1036.73 76.8225 1025.12 88.319 1016.64 102.921L1032.21 111.959ZM1060.15 84.2674C1072.11 77.6228 1085.83 74.2 1101.54 74.2V56.2C1083.12 56.2 1066.33 60.2439 1051.41 68.5326L1060.15 84.2674ZM1101.54 74.2C1116.83 74.2 1130.12 77.5189 1141.64 83.9413L1150.4 68.2187C1135.9 60.1344 1119.53 56.2 1101.54 56.2V74.2ZM1141.64 83.9413C1153.18 90.3722 1162.24 99.4097 1168.91 111.224L1184.58 102.376C1176.32 87.7369 1164.89 76.2944 1150.4 68.2187L1141.64 83.9413ZM1168.91 111.224C1175.48 122.876 1178.94 136.87 1178.94 153.52H1196.94C1196.94 134.33 1192.94 117.177 1184.58 102.376L1168.91 111.224ZM1178.94 153.52C1178.94 154.863 1178.86 156.477 1178.67 158.384L1196.58 160.176C1196.81 157.816 1196.94 155.59 1196.94 153.52H1178.94ZM1178.62 159.28C1178.62 161.115 1178.53 162.808 1178.36 164.366L1196.25 166.354C1196.5 164.072 1196.62 161.712 1196.62 159.28H1178.62ZM1187.3 156.36H1044.9V174.36H1187.3V156.36ZM1053.9 165.36V138.8H1035.9V165.36H1053.9ZM1044.9 147.8H1166.18V129.8H1044.9V147.8ZM1161.96 130.85L1146.28 139.17L1154.72 155.07L1170.4 146.75L1161.96 130.85ZM1159.5 147.316C1159.74 136.105 1157.42 125.81 1152.24 116.735L1136.61 125.665C1139.96 131.523 1141.69 138.508 1141.5 146.924L1159.5 147.316ZM1152.24 116.735C1147.17 107.873 1140.15 100.85 1131.29 95.7858L1122.36 111.414C1128.43 114.884 1133.14 119.594 1136.61 125.665L1152.24 116.735ZM1131.39 95.8426C1122.56 90.6531 1112.52 88.2 1101.54 88.2V106.2C1109.77 106.2 1116.57 108.014 1122.26 111.357L1131.39 95.8426ZM1101.54 88.2C1090.39 88.2 1080.17 90.6378 1071.16 95.7858L1080.09 111.414C1086.01 108.029 1093.07 106.2 1101.54 106.2V88.2ZM1071.06 95.8426C1062.36 100.96 1055.49 108.13 1050.48 117.149L1066.21 125.891C1069.73 119.55 1074.38 114.773 1080.19 111.357L1071.06 95.8426ZM1050.43 117.226C1045.53 126.256 1043.26 136.646 1043.26 148.08H1061.26C1061.26 139.034 1063.05 131.717 1066.25 125.814L1050.43 117.226ZM1043.26 148.08V154.48H1061.26V148.08H1043.26ZM1043.26 154.48C1043.26 166.148 1045.95 176.839 1051.57 186.28L1067.04 177.08C1063.26 170.734 1061.26 163.292 1061.26 154.48H1043.26ZM1051.57 186.28C1057.18 195.714 1065.11 202.964 1075.12 207.97L1083.17 191.87C1076.11 188.343 1070.82 183.432 1067.04 177.08L1051.57 186.28ZM1075.12 207.97C1085.09 212.956 1096.32 215.32 1108.58 215.32V197.32C1098.66 197.32 1090.26 195.418 1083.17 191.87L1075.12 207.97ZM1108.58 215.32C1119.12 215.32 1128.89 213.68 1137.76 210.228L1131.24 193.452C1124.76 195.973 1117.25 197.32 1108.58 197.32V215.32ZM1137.76 210.228C1146.78 206.721 1154.72 201.227 1161.56 193.901L1148.4 181.619C1143.29 187.093 1137.58 190.986 1131.24 193.452L1137.76 210.228ZM1148.19 193.668L1169.63 218.308L1183.21 206.492L1161.77 181.852L1148.19 193.668ZM1169.59 206.543C1162.89 214.355 1154.37 220.489 1143.83 224.897L1150.77 241.503C1163.7 236.098 1174.59 228.365 1183.26 218.257L1169.59 206.543ZM1143.91 224.865C1133.66 229.041 1121.62 231.24 1107.62 231.24V249.24C1123.49 249.24 1137.91 246.746 1150.7 241.535L1143.91 224.865ZM1226.36 238H1217.36V247H1226.36V238ZM1226.36 67.12V58.12H1217.36V67.12H1226.36ZM1264.44 67.12H1273.44V58.12H1264.44V67.12ZM1264.44 114.16L1255.89 116.946L1273.44 114.16H1264.44ZM1259.96 100.4L1251.74 96.7448L1250.34 99.9015L1251.41 103.186L1259.96 100.4ZM1283.96 74.16L1279.7 66.2357L1279.67 66.2531L1279.63 66.2708L1283.96 74.16ZM1325.24 65.2H1334.24V56.2H1325.24V65.2ZM1325.24 103.28L1323.06 112.011L1334.24 114.807V103.28H1325.24ZM1320.44 102.64L1319.17 111.55L1319.81 111.64H1320.44V102.64ZM1279.81 115.76L1286.09 122.2L1286.13 122.162L1286.17 122.124L1279.81 115.76ZM1266.36 238V247H1275.36V238H1266.36ZM1235.36 238V67.12H1217.36V238H1235.36ZM1226.36 76.12H1264.44V58.12H1226.36V76.12ZM1255.44 67.12V114.16H1273.44V67.12H1255.44ZM1273 111.374L1268.52 97.6137L1251.41 103.186L1255.89 116.946L1273 111.374ZM1268.19 104.055C1272.52 94.3039 1279.17 87.0591 1288.3 82.0492L1279.63 66.2708C1267 73.2076 1257.65 83.4561 1251.74 96.7448L1268.19 104.055ZM1288.23 82.0842C1297.68 76.9991 1309.87 74.2 1325.24 74.2V56.2C1307.77 56.2 1292.44 59.3742 1279.7 66.2357L1288.23 82.0842ZM1316.24 65.2V103.28H1334.24V65.2H1316.24ZM1327.43 94.5487C1325.13 93.9743 1322.79 93.64 1320.44 93.64V111.64C1321.09 111.64 1321.95 111.732 1323.06 112.011L1327.43 94.5487ZM1321.72 93.7305C1319.81 93.4575 1317.89 93.32 1315.96 93.32V111.32C1317.03 111.32 1318.1 111.396 1319.17 111.55L1321.72 93.7305ZM1315.96 93.32C1298.93 93.32 1284.41 98.425 1273.44 109.396L1286.17 122.124C1293.12 115.175 1302.71 111.32 1315.96 111.32V93.32ZM1273.52 109.32C1262.23 120.341 1257.36 136.184 1257.36 155.12H1275.36C1275.36 139.07 1279.46 128.672 1286.09 122.2L1273.52 109.32ZM1257.36 155.12V238H1275.36V155.12H1257.36ZM1266.36 229H1226.36V247H1266.36V229ZM1359.18 238H1350.18V247H1359.18V238ZM1359.18 67.12V58.12H1350.18V67.12H1359.18ZM1397.26 67.12H1406.26V58.12H1397.26V67.12ZM1397.26 114.16L1388.7 116.946L1406.26 114.16H1397.26ZM1392.78 100.4L1384.55 96.7448L1383.15 99.9015L1384.22 103.186L1392.78 100.4ZM1416.78 74.16L1412.51 66.2357L1412.48 66.2531L1412.45 66.2708L1416.78 74.16ZM1458.06 65.2H1467.06V56.2H1458.06V65.2ZM1458.06 103.28L1455.87 112.011L1467.06 114.807V103.28H1458.06ZM1453.26 102.64L1451.98 111.55L1452.62 111.64H1453.26V102.64ZM1412.62 115.76L1418.9 122.2L1418.94 122.162L1418.98 122.124L1412.62 115.76ZM1399.18 238V247H1408.18V238H1399.18ZM1368.18 238V67.12H1350.18V238H1368.18ZM1359.18 76.12H1397.26V58.12H1359.18V76.12ZM1388.26 67.12V114.16H1406.26V67.12H1388.26ZM1405.82 111.374L1401.34 97.6137L1384.22 103.186L1388.7 116.946L1405.82 111.374ZM1401 104.055C1405.34 94.3039 1411.98 87.0591 1421.11 82.0492L1412.45 66.2708C1399.81 73.2076 1390.46 83.4561 1384.55 96.7448L1401 104.055ZM1421.04 82.0842C1430.49 76.9991 1442.68 74.2 1458.06 74.2V56.2C1440.58 56.2 1425.25 59.3742 1412.51 66.2357L1421.04 82.0842ZM1449.06 65.2V103.28H1467.06V65.2H1449.06ZM1460.24 94.5487C1457.94 93.9743 1455.6 93.64 1453.26 93.64V111.64C1453.9 111.64 1454.76 111.732 1455.87 112.011L1460.24 94.5487ZM1454.53 93.7305C1452.62 93.4575 1450.7 93.32 1448.78 93.32V111.32C1449.84 111.32 1450.91 111.396 1451.98 111.55L1454.53 93.7305ZM1448.78 93.32C1431.74 93.32 1417.22 98.425 1406.25 109.396L1418.98 122.124C1425.93 115.175 1435.52 111.32 1448.78 111.32V93.32ZM1406.33 109.32C1395.04 120.341 1390.18 136.184 1390.18 155.12H1408.18C1408.18 139.07 1412.27 128.672 1418.9 122.2L1406.33 109.32ZM1390.18 155.12V238H1408.18V155.12H1390.18ZM1399.18 229H1359.18V247H1399.18V229ZM1487.36 298.16L1484.51 306.698L1487.36 298.16ZM1466.56 286.64L1458.65 282.342L1455.23 288.635L1460.6 293.381L1466.56 286.64ZM1482.56 257.2L1488.56 250.493L1480.08 242.908L1474.65 252.902L1482.56 257.2ZM1496.32 265.84L1499.78 257.532L1496.32 265.84ZM1529.6 263.6L1535.26 270.595L1529.6 263.6ZM1542.08 245.36L1550.29 249.053L1550.3 249.029L1550.31 249.004L1542.08 245.36ZM1552 222.96L1544.51 217.968L1544.08 218.61L1543.77 219.316L1552 222.96ZM1555.2 218.16L1562.69 223.152L1563.15 222.463L1563.47 221.701L1555.2 218.16ZM1619.84 67.12V58.12H1613.9L1611.57 63.5789L1619.84 67.12ZM1658.24 67.12L1666.5 70.6981L1671.95 58.12H1658.24V67.12ZM1578.24 251.76L1569.98 248.182L1569.96 248.24L1569.93 248.298L1578.24 251.76ZM1560.32 282.16L1553.58 276.193L1553.53 276.247L1553.49 276.303L1560.32 282.16ZM1538.56 297.84L1535.45 289.395L1535.41 289.409L1535.38 289.422L1538.56 297.84ZM1547.52 244.08L1539.27 247.676L1544.78 260.312L1554.13 250.188L1547.52 244.08ZM1470.4 67.12V58.12H1456.66L1462.15 70.7156L1470.4 67.12ZM1512 67.12L1520.28 63.5986L1517.95 58.12H1512V67.12ZM1574.72 214.64L1581.33 220.747L1585.28 216.474L1583 211.119L1574.72 214.64ZM1512.32 293.32C1505.02 293.32 1497.66 292.106 1490.21 289.622L1484.51 306.698C1493.7 309.761 1502.98 311.32 1512.32 311.32V293.32ZM1490.21 289.622C1482.83 287.162 1477.01 283.869 1472.52 279.899L1460.6 293.381C1467.2 299.224 1475.25 303.611 1484.51 306.698L1490.21 289.622ZM1474.47 290.938L1490.47 261.498L1474.65 252.902L1458.65 282.342L1474.47 290.938ZM1476.56 263.907C1481.38 268.219 1486.83 271.635 1492.86 274.148L1499.78 257.532C1495.57 255.779 1491.85 253.434 1488.56 250.493L1476.56 263.907ZM1492.86 274.148C1499.03 276.719 1505.43 278.04 1512 278.04V260.04C1507.9 260.04 1503.85 259.227 1499.78 257.532L1492.86 274.148ZM1512 278.04C1520.77 278.04 1528.8 275.825 1535.26 270.595L1523.94 256.605C1521.44 258.629 1517.74 260.04 1512 260.04V278.04ZM1535.26 270.595C1541.31 265.696 1546.19 258.16 1550.29 249.053L1533.87 241.667C1530.29 249.626 1526.85 254.251 1523.94 256.605L1535.26 270.595ZM1550.31 249.004L1560.23 226.604L1543.77 219.316L1533.85 241.716L1550.31 249.004ZM1559.49 227.952L1562.69 223.152L1547.71 213.168L1544.51 217.968L1559.49 227.952ZM1563.47 221.701L1628.11 70.661L1611.57 63.5789L1546.93 214.619L1563.47 221.701ZM1619.84 76.12H1658.24V58.12H1619.84V76.12ZM1649.98 63.5419L1569.98 248.182L1586.5 255.338L1666.5 70.6981L1649.98 63.5419ZM1569.93 248.298C1564.84 260.512 1559.34 269.696 1553.58 276.193L1567.06 288.127C1574.53 279.69 1580.97 268.608 1586.55 255.222L1569.93 248.298ZM1553.49 276.303C1547.95 282.767 1541.92 287.009 1535.45 289.395L1541.67 306.285C1551.41 302.698 1559.89 296.486 1567.15 288.017L1553.49 276.303ZM1535.38 289.422C1528.63 291.975 1520.98 293.32 1512.32 293.32V311.32C1522.86 311.32 1532.7 309.678 1541.74 306.258L1535.38 289.422ZM1555.77 240.484L1478.65 63.5244L1462.15 70.7156L1539.27 247.676L1555.77 240.484ZM1470.4 76.12H1512V58.12H1470.4V76.12ZM1503.72 70.6414L1566.44 218.161L1583 211.119L1520.28 63.5986L1503.72 70.6414ZM1568.11 208.533L1540.91 237.973L1554.13 250.188L1581.33 220.747L1568.11 208.533Z" fill="#BC1142"/>
</svg>
