<svg width="48" height="55" viewBox="0 0 48 55" fill="none" xmlns="http://www.w3.org/2000/svg">
<path d="M0.0800781 55V53.454C1.03768 53.1947 2.05397 52.4998 3.13204 51.3695C4.20702 50.2357 5.20169 48.4072 6.10986 45.8838L22.4014 0H24.7707L42.5696 48.5136C43.2863 50.4186 44.0771 51.7052 44.9389 52.3768C45.8008 53.0451 46.6132 53.4075 47.3792 53.4574V55.0033C46.2796 54.9501 44.9266 54.9003 43.3234 54.8504C41.7202 54.7972 40.154 54.7739 38.6219 54.7739C36.6603 54.7739 34.8069 54.8005 33.0585 54.8504C31.3132 54.9003 29.9139 54.9535 28.8605 55.0033V53.4574C29.4166 53.4507 29.9726 53.4441 30.5317 53.4374C31.0198 53.3742 31.7333 53.2279 32.521 52.839C33.0956 52.5564 34.152 52.0543 34.7729 50.9838C35.8356 49.1519 35.0757 46.9776 34.949 46.6351L21.5395 7.80965L22.3458 7.7764C17.7802 20.9753 13.2146 34.1743 8.64904 47.3765C8.54402 47.6824 7.99108 49.3979 8.83129 51.1434C9.34716 52.2173 10.1379 52.7758 10.5055 53.0052C10.9195 53.1615 11.3519 53.2246 11.5651 53.2545C11.8863 53.3011 12.1118 53.3011 12.3342 53.3177C12.3466 53.3177 13.9838 53.454 14.0054 53.4574V55.0033C12.5227 54.9501 11.0616 54.9003 9.62826 54.8504C8.19186 54.7972 6.8296 54.7739 5.53839 54.7739C4.34294 54.7739 3.3143 54.8005 2.45246 54.8504C1.59062 54.9003 0.802913 54.9535 0.0831702 55.0033L0.0800781 55Z" fill="black"/>
</svg>
